<?xml version="1.0" standalone="no"?>
<!DOCTYPE svg PUBLIC "-//W3C//DTD SVG 20010904//EN"
 "http://www.w3.org/TR/2001/REC-SVG-20010904/DTD/svg10.dtd">
<svg version="1.0" xmlns="http://www.w3.org/2000/svg"
 width="443.000000pt" height="443.000000pt" viewBox="0 0 443.000000 443.000000"
 preserveAspectRatio="xMidYMid meet">
<metadata>
Created by potrace 1.11, written by Peter Selinger 2001-2013
</metadata>
<g transform="translate(0.000000,443.000000) scale(0.100000,-0.100000)"
fill="#000000" stroke="none">
<path d="M2154 4421 c-2 -2 -4 -14 -4 -27 0 -21 4 -22 93 -22 97 -1 226 -10
238 -18 11 -7 22 37 12 47 -12 12 -328 31 -339 20z"/>
<path d="M1888 4402 c-30 -4 -31 -5 -22 -38 5 -18 10 -21 32 -15 21 6 26 13
24 32 -2 13 -5 24 -5 24 -1 0 -14 -1 -29 -3z"/>
<path d="M1768 4382 c-11 -2 -18 -13 -18 -28 0 -22 4 -25 28 -22 19 2 28 9 30
24 3 23 -12 33 -40 26z"/>
<path d="M2664 4355 c-8 -19 1 -31 26 -38 16 -4 23 1 29 16 5 14 4 25 -3 29
-18 13 -46 9 -52 -7z"/>
<path d="M2774 4328 c-7 -22 9 -38 39 -38 15 0 18 6 17 38 0 4 -11 10 -25 14
-19 5 -26 2 -31 -14z"/>
<path d="M1457 4293 c-86 -33 -96 -39 -91 -57 4 -12 7 -22 8 -23 2 -2 51 14
109 35 92 31 107 40 105 57 -4 30 -24 28 -131 -12z"/>
<path d="M3047 4243 c-19 -18 2 -36 93 -81 98 -48 120 -51 120 -15 0 8 -41 34
-92 58 -92 45 -109 51 -121 38z"/>
<path d="M2048 4225 c-2 -1 -32 -5 -68 -8 -221 -20 -461 -93 -685 -207 -71
-36 -154 -83 -182 -103 -29 -20 -55 -37 -58 -37 -6 0 -10 -4 -130 -103 -331
-273 -565 -642 -670 -1052 -46 -181 -62 -324 -59 -526 1 -101 4 -195 7 -209 3
-14 8 -47 12 -75 12 -91 72 -318 110 -415 53 -134 151 -327 197 -385 4 -5 35
-47 68 -93 78 -107 98 -129 203 -234 555 -552 1394 -730 2127 -453 587 221
1035 700 1221 1302 18 58 57 229 64 283 28 202 25 497 -5 635 -5 22 -12 56
-15 75 -23 136 -95 344 -176 505 -261 519 -778 928 -1330 1051 -10 2 -28 6
-40 9 -11 2 -28 6 -37 9 -9 3 -42 8 -72 12 -30 3 -82 10 -115 14 -54 7 -360
11 -367 5z"/>
<path d="M1117 4137 c-16 -11 -16 -15 -3 -32 12 -17 17 -18 40 -7 23 10 25 14
14 32 -15 23 -27 25 -51 7z"/>
<path d="M1022 4078 c-30 -30 -1 -64 34 -41 19 12 22 19 13 34 -11 22 -30 24
-47 7z"/>
<path d="M3401 4047 c-12 -18 -10 -22 10 -38 21 -16 24 -16 36 -1 17 23 16 28
-10 45 -22 14 -24 13 -36 -6z"/>
<path d="M3493 3981 c-10 -16 -8 -22 7 -36 16 -15 22 -15 35 -5 20 16 19 30
-2 46 -24 18 -26 17 -40 -5z"/>
<path d="M789 3907 c-92 -78 -105 -93 -89 -112 16 -20 16 -20 86 41 33 29 70
61 84 72 21 17 22 22 11 36 -7 9 -17 16 -20 16 -4 0 -36 -24 -72 -53z"/>
<path d="M3710 3794 c-11 -13 -4 -25 51 -81 35 -37 69 -72 76 -80 15 -17 28
-17 43 2 12 15 -12 45 -109 141 -39 39 -44 40 -61 18z"/>
<path d="M508 3626 c-16 -22 -16 -25 1 -40 16 -15 19 -15 36 4 18 20 18 21 -1
40 -19 18 -19 18 -36 -4z"/>
<path d="M435 3534 c-16 -24 -16 -26 2 -40 10 -7 21 -14 24 -14 6 0 32 51 27
54 -2 1 -10 7 -19 14 -14 10 -19 8 -34 -14z"/>
<path d="M3976 3497 c-16 -12 -17 -16 -5 -35 16 -26 32 -28 49 -6 11 12 10 18
-6 35 -17 17 -22 17 -38 6z"/>
<path d="M4032 3397 c-8 -9 -6 -19 6 -35 15 -20 20 -21 36 -9 15 11 17 17 7
35 -13 25 -33 28 -49 9z"/>
<path d="M313 3351 c-6 -10 -32 -56 -57 -103 l-46 -85 24 -11 c21 -9 25 -7 37
16 8 15 28 53 46 84 44 80 48 95 25 107 -14 7 -21 5 -29 -8z"/>
<path d="M4173 3154 c-12 -5 -9 -21 22 -89 7 -16 21 -52 31 -78 20 -56 25 -61
49 -43 18 13 17 18 -22 112 -38 94 -52 109 -80 98z"/>
<path d="M115 2923 c-6 -26 6 -43 31 -43 12 0 29 48 21 56 -2 3 -13 6 -25 9
-15 3 -22 -3 -27 -22z"/>
<path d="M81 2810 c-5 -16 -6 -30 -1 -30 4 0 15 -3 24 -6 24 -9 39 37 18 54
-23 18 -29 15 -41 -18z"/>
<path d="M4300 2763 c0 -10 4 -24 9 -32 12 -18 54 -4 47 16 -3 8 -6 19 -6 24
0 5 -11 9 -25 9 -17 0 -25 -5 -25 -17z"/>
<path d="M4334 2664 c-6 -3 -9 -16 -6 -29 3 -19 11 -25 29 -25 21 0 24 4 21
27 -3 27 -20 37 -44 27z"/>
<path d="M30 2598 c-1 -7 -7 -59 -14 -116 l-13 -103 26 3 c28 3 26 -4 45 166
7 62 7 62 -19 62 -14 0 -25 -6 -25 -12z"/>
<path d="M4375 2384 c-10 -4 -10 -192 0 -221 2 -6 12 -10 22 -9 16 3 18 15 19
107 1 130 -2 140 -41 123z"/>
<path d="M6 2152 c-3 -3 -6 -18 -6 -33 0 -21 4 -26 18 -24 9 2 21 4 25 4 16 2
2 54 -15 57 -9 1 -19 -1 -22 -4z"/>
<path d="M8 2010 c3 -24 9 -30 28 -30 20 0 24 5 24 30 0 26 -4 30 -28 30 -26
0 -28 -3 -24 -30z"/>
<path d="M4359 1982 c0 -4 -2 -17 -5 -28 -2 -16 3 -23 18 -28 25 -6 36 6 34
36 -1 14 -9 22 -23 24 -13 2 -23 1 -24 -4z"/>
<path d="M4338 1849 c-3 -21 0 -30 14 -35 25 -7 38 3 38 30 0 17 -7 25 -24 28
-20 4 -25 0 -28 -23z"/>
<path d="M53 1813 c-18 -7 -16 -26 8 -124 26 -104 29 -109 55 -99 l20 8 -27
108 c-26 107 -32 117 -56 107z"/>
<path d="M4275 1578 c-4 -13 -20 -61 -37 -107 -25 -68 -28 -85 -17 -92 22 -14
36 -11 42 9 3 9 19 57 36 106 18 49 31 90 29 91 -2 1 -13 6 -25 9 -17 5 -23 2
-28 -16z"/>
<path d="M182 1372 c-9 -6 -10 -15 -3 -35 7 -19 15 -24 30 -20 21 5 26 19 15
47 -7 18 -22 20 -42 8z"/>
<path d="M228 1269 c-17 -9 -17 -12 -2 -34 18 -27 22 -29 43 -16 12 8 13 14 3
35 -13 28 -18 30 -44 15z"/>
<path d="M4121 1204 c-13 -30 -14 -29 15 -38 16 -5 23 0 32 19 10 21 9 26 -8
35 -25 14 -25 14 -39 -16z"/>
<path d="M4066 1105 c-15 -23 -15 -25 5 -35 17 -9 23 -8 35 7 18 24 17 40 -2
47 -21 8 -20 9 -38 -19z"/>
<path d="M343 1073 c-7 -2 -13 -10 -13 -17 0 -16 118 -186 129 -186 5 0 14 7
21 15 9 11 0 31 -50 105 -34 49 -65 90 -69 89 -3 0 -12 -3 -18 -6z"/>
<path d="M3865 828 c-92 -108 -91 -106 -69 -122 20 -15 36 -2 113 94 20 25 39
47 44 48 13 6 7 27 -11 38 -15 10 -26 2 -77 -58z"/>
<path d="M625 710 c-17 -19 -17 -21 0 -40 22 -25 32 -25 44 -2 6 12 4 23 -9
39 -17 22 -18 22 -35 3z"/>
<path d="M699 624 c-11 -14 -10 -19 10 -35 18 -15 27 -17 37 -8 18 15 18 27 0
45 -19 18 -30 18 -47 -2z"/>
<path d="M3632 587 c-22 -23 -22 -24 -4 -40 17 -16 20 -16 40 6 22 23 22 24 4
40 -17 16 -20 16 -40 -6z"/>
<path d="M3548 519 c-22 -23 -22 -33 -4 -48 10 -9 19 -7 36 7 21 17 21 18 3
39 -18 20 -18 20 -35 2z"/>
<path d="M881 487 c-25 -25 -14 -36 113 -120 56 -38 60 -39 73 -21 16 22 17
20 -93 97 -61 41 -84 53 -93 44z"/>
<path d="M3314 356 c-10 -7 -50 -30 -89 -50 -87 -46 -88 -48 -72 -71 13 -17
18 -16 92 24 105 57 115 64 115 77 0 23 -25 34 -46 20z"/>
<path d="M1270 251 c0 -5 -2 -16 -5 -23 -8 -20 38 -41 54 -25 17 17 13 35 -8
47 -24 12 -41 13 -41 1z"/>
<path d="M1375 193 c-7 -29 -7 -28 21 -37 15 -5 23 0 31 17 10 21 8 25 -17 34
-26 10 -29 8 -35 -14z"/>
<path d="M2952 187 c-17 -8 -21 -16 -16 -31 9 -30 11 -31 39 -18 28 13 30 21
13 44 -10 13 -18 14 -36 5z"/>
<path d="M2849 147 c-22 -10 -25 -16 -19 -34 7 -16 14 -20 30 -16 25 7 35 26
23 46 -6 12 -13 13 -34 4z"/>
<path d="M1587 121 c-7 -27 6 -33 119 -60 110 -25 101 -25 107 -1 7 26 1 29
-96 51 -45 10 -92 21 -103 24 -16 5 -23 1 -27 -14z"/>
<path d="M2578 84 c-2 -1 -25 -5 -53 -8 -27 -4 -59 -9 -70 -11 -11 -2 -32 -4
-47 -4 -23 -1 -28 -6 -28 -27 0 -25 0 -25 63 -19 34 3 78 9 97 12 19 3 42 6
50 8 21 3 26 52 6 52 -9 0 -17 -1 -18 -3z"/>
<path d="M2038 36 c-5 -24 -2 -26 27 -26 27 0 32 4 31 22 -1 17 -8 24 -27 26
-22 3 -27 -2 -31 -22z"/>
<path d="M2163 53 c-7 -3 -13 -15 -13 -27 0 -17 6 -22 30 -24 26 -2 30 1 30
22 0 24 -22 37 -47 29z"/>
</g>
</svg>
